<svg id="Group_68" data-name="Group 68" xmlns="http://www.w3.org/2000/svg" xmlns:xlink="http://www.w3.org/1999/xlink" width="25.852" height="25.852" viewBox="0 0 25.852 25.852">
  <defs>
    <clipPath id="clip-path">
      <rect id="Rectangle_72" data-name="Rectangle 72" width="25.852" height="25.852" fill="#521507"/>
    </clipPath>
  </defs>
  <g id="Group_67" data-name="Group 67" clip-path="url(#clip-path)">
    <path id="Path_40" data-name="Path 40" d="M0,12.925A12.926,12.926,0,1,0,12.926,0,12.94,12.94,0,0,0,0,12.925m23.4,0A10.474,10.474,0,1,1,12.926,2.451,10.486,10.486,0,0,1,23.4,12.925M8.663,9.834l4.263,4.176,4.262-4.176A1.226,1.226,0,0,1,18.9,11.586L13.784,16.6a1.226,1.226,0,0,1-1.716,0l-5.12-5.016A1.226,1.226,0,0,1,8.663,9.834" transform="translate(0 0.001)" fill="#521507"/>
  </g>
</svg>
