<svg id="Group_145" data-name="Group 145" xmlns="http://www.w3.org/2000/svg" xmlns:xlink="http://www.w3.org/1999/xlink" width="27.63" height="25.264" viewBox="0 0 27.63 25.264">
  <defs>
    <clipPath id="clip-path">
      <rect id="Rectangle_75" data-name="Rectangle 75" width="27.63" height="25.264" fill="#79201a"/>
    </clipPath>
  </defs>
  <g id="Group_144" data-name="Group 144" clip-path="url(#clip-path)">
    <path id="Path_42" data-name="Path 42" d="M13.715,14.411,4.7,24.3A2.7,2.7,0,0,1,.705,20.662l7.36-8.071L.705,4.52A2.7,2.7,0,1,1,4.7.881l9.019,9.891a2.7,2.7,0,0,1,0,3.639M17.906.963A2.7,2.7,0,1,0,13.916,4.6l7.36,8.071-7.36,8.071a2.7,2.7,0,0,0,3.991,3.639l9.019-9.89a2.7,2.7,0,0,0,0-3.639Z" transform="translate(0 0)" fill="#79201a"/>
  </g>
</svg>
