<svg id="Group_15" data-name="Group 15" xmlns="http://www.w3.org/2000/svg" xmlns:xlink="http://www.w3.org/1999/xlink" width="93.074" height="91.281" viewBox="0 0 93.074 91.281">
  <defs>
    <clipPath id="clip-path">
      <rect id="Rectangle_17" data-name="Rectangle 17" width="93.074" height="91.281" fill="none"/>
    </clipPath>
  </defs>
  <g id="Group_3" data-name="Group 3" clip-path="url(#clip-path)">
    <path id="Path_6" data-name="Path 6" d="M46.537,91.281A46.7,46.7,0,0,1,13.631,77.913a45.021,45.021,0,0,1,0-64.545,47.186,47.186,0,0,1,65.813,0,45.022,45.022,0,0,1,0,64.545A46.7,46.7,0,0,1,46.537,91.281m0-85.392C24.187,5.889,6,23.722,6,45.641S24.187,85.392,46.537,85.392,87.069,67.559,87.069,45.641,68.887,5.889,46.537,5.889" fill="#010101"/>
    <path id="Path_7" data-name="Path 7" d="M94.529,99.134a2.421,2.421,0,0,1-1.247.852,2.46,2.46,0,0,1-1.509-.155,32.632,32.632,0,0,1-9.719-6.238A31.966,31.966,0,0,1,75.7,84.066a2.33,2.33,0,0,1-.158-1.48,2.371,2.371,0,0,1,.868-1.222c5.043-4.131,6.527-4.562,5.463-6.7-4.765-9.584-4.8-10.532-5.9-10.96-2.908-1.135-6.2.922-6.671,1.216-4.686,2.929-5.681,9.066-5.584,11.2.3,6.5,3.869,15.47,11.672,23.9,8.461,8.386,17.983,12.41,24.487,11.562.831-.108,8.6-.858,11.417-5.476.321-.527,2.388-3.714,1.24-6.543-.436-1.073-1.152-1.648-11.175-5.783-.509-.21-1.527-.941-6.833,5.358" transform="translate(-41.942 -41.71)" fill="#010101" fill-rule="evenodd"/>
  </g>
</svg>
