<svg id="Group_51" data-name="Group 51" xmlns="http://www.w3.org/2000/svg" xmlns:xlink="http://www.w3.org/1999/xlink" width="70.511" height="45.368" viewBox="0 0 70.511 45.368">
  <defs>
    <clipPath id="clip-path">
      <path id="Path_31" data-name="Path 31" d="M21.465,0A2.521,2.521,0,0,0,20.32.289C1.819,10,.027,22.8,0,27.229v.2c0,.438.022.781.041,1.017C.028,28.727,0,29,0,29.28a16.088,16.088,0,1,0,18.393-15.9,19.894,19.894,0,0,1,5.231-8.554,2.627,2.627,0,0,0,.108-3.639L23.444.866A2.649,2.649,0,0,0,21.53,0Z" fill="#76737b"/>
    </clipPath>
    <clipPath id="clip-path-2">
      <path id="Path_32" data-name="Path 32" d="M51.407,0a2.521,2.521,0,0,0-1.145.289C29.521,11.176,29.778,25.944,29.984,28.451c-.014.277-.042.549-.042.83a16.088,16.088,0,1,0,18.393-15.9,19.906,19.906,0,0,1,5.23-8.554,2.627,2.627,0,0,0,.11-3.639L53.385.866A2.644,2.644,0,0,0,51.472,0Z" transform="translate(-29.942)" fill="#76737b"/>
    </clipPath>
  </defs>
  <g id="Group_48" data-name="Group 48">
    <g id="Group_47" data-name="Group 47" clip-path="url(#clip-path)">
      <rect id="Rectangle_42" data-name="Rectangle 42" width="32.175" height="45.368" transform="translate(0 0)" fill="#76737b"/>
    </g>
  </g>
  <g id="Group_50" data-name="Group 50" transform="translate(38.336)">
    <g id="Group_49" data-name="Group 49" clip-path="url(#clip-path-2)">
      <rect id="Rectangle_43" data-name="Rectangle 43" width="32.596" height="45.368" transform="translate(-0.421 0)" fill="#76737b"/>
    </g>
  </g>
</svg>
