<svg id="Group_149" data-name="Group 149" xmlns="http://www.w3.org/2000/svg" xmlns:xlink="http://www.w3.org/1999/xlink" width="75" height="69.59" viewBox="0 0 75 69.59">
  <defs>
    <clipPath id="clip-path">
      <rect id="Rectangle_78" data-name="Rectangle 78" width="75" height="69.59" fill="none"/>
    </clipPath>
  </defs>
  <g id="Group_148" data-name="Group 148" clip-path="url(#clip-path)">
    <path id="Path_60" data-name="Path 60" d="M233.023,5.451c-3.843.766-9.832,8.924-7.68,8.774.5-.035.481-.669,1.983-2.574,3-3.8,5.441-4.487,6.2-5.329a.513.513,0,0,0-.506-.871" transform="translate(-192.643 -4.656)" fill="#040404"/>
    <path id="Path_61" data-name="Path 61" d="M29.362,363.863a3.255,3.255,0,0,0-1.335,1.329c-.147.337.051.808.482.67a3.318,3.318,0,0,0,1.348-1.392c.179-.364-.075-.76-.495-.607" transform="translate(-23.967 -311.662)" fill="#040404"/>
    <path id="Path_62" data-name="Path 62" d="M4.063,374.413c.393,0,.564-.408,2.036-1.889,5.873-5.9,5.489-5.382,5.87-5.907.316-.436.158-1.105-.488-.948-1.285.313-10.025,8.744-7.418,8.744" transform="translate(-3.067 -313.218)" fill="#040404"/>
    <path id="Path_63" data-name="Path 63" d="M464.531,140.057c-3.813,5.352-6.574,4.939-7.483,5.921-.364.393-.041.874.441.882,1.737.03,5.306-2.2,7.35-5.162,1.553-2.25,1.112-2.861.533-2.641-.364.138-.625.7-.84,1" transform="translate(-391.381 -119.082)" fill="#040404"/>
    <path id="Path_64" data-name="Path 64" d="M319.969,276.264c.408.341,1.325,1.385,1.948,1.184.809-.263-1.59-2.055-6.214-6.018-.386-.331-1.212-1.393-1.769-1.286-1.238.238.939,1.86,6.036,6.12" transform="translate(-268.629 -231.403)" fill="#040404"/>
    <path id="Path_65" data-name="Path 65" d="M349.949,260.492c.81-.348-1.146-2.008-1.681-1.8-.811.311,1.136,2.036,1.681,1.8" transform="translate(-298.165 -221.583)" fill="#040404"/>
    <path id="Path_66" data-name="Path 66" d="M348.059,278.359c.95.75,1.287.065.78-.466-.284-.3-1.946-1.795-2.353-1.729-1.187.195,1.173,1.878,1.573,2.195" transform="translate(-296.523 -236.565)" fill="#040404"/>
    <path id="Path_67" data-name="Path 67" d="M127.531,267.439c-.293-.273-1.145-1.337-1.6-.942-.516.445.673,1.318.947,1.592,1.005,1,2.077,1.984,3.151,2.916.505.439.865.885,1.575.891-.007-.842-.434-1.072-4.069-4.457" transform="translate(-107.762 -228.211)" fill="#040404"/>
    <path id="Path_68" data-name="Path 68" d="M360.2,18.2c8.03-.536,11.974,3.44,12.981,2.976,1.755-.811-8.069-4.415-11.406-3.993-.662.083-2.6-.015-2.248.811.106.247.451.221.672.206" transform="translate(-307.937 -14.69)" fill="#040404"/>
    <path id="Path_69" data-name="Path 69" d="M337.072,309.846c-.266-.207-.669-.6-1.043-.448-1,.4,1.267,1.784,2.618,2.8.282.211.714.626,1.106.46.889-.376-1.55-1.933-2.681-2.81" transform="translate(-287.635 -265.007)" fill="#040404"/>
    <path id="Path_70" data-name="Path 70" d="M464.242,49.7c.743-.4-.958-1.878-1.485-1.643-.766.341.961,1.922,1.485,1.643" transform="translate(-396.24 -41.143)" fill="#040404"/>
    <path id="Path_71" data-name="Path 71" d="M134.27,249.694c-9.517-8.264-10.54-10.15-11.107-9.4-.259.342.263.755.474.963.9.892,8.752,7.994,10.436,9.471.765.67,2.025,2.312,3.151,2.213-.229-1.269-2.034-2.445-2.953-3.244" transform="translate(-105.443 -205.71)" fill="#040404"/>
    <path id="Path_72" data-name="Path 72" d="M165.09,418.265c1.077-.149.626-1.456-.328-1.4-.614.038-1.78-.192-2.282.209-.449.358-.732,1.651,2.611,1.189" transform="translate(-138.954 -357.068)" fill="#040404"/>
    <path id="Path_73" data-name="Path 73" d="M49.009,447.877c-.45-.3-.642-.026-2.815-.2a1.8,1.8,0,0,0,.247-.919.677.677,0,0,0-1.155-.3,1.44,1.44,0,0,0,.12,2.379,4.868,4.868,0,0,0,3.348.326.725.725,0,0,0,.255-1.287" transform="translate(-38.305 -382.27)" fill="#040404"/>
    <path id="Path_74" data-name="Path 74" d="M371.469,170.715a18.539,18.539,0,0,1-6.433.585c-.4-.053-1.754-.4-1.819.237-.143,1.391,7.932.57,8.748-.18.413-.38-.113-.718-.5-.643" transform="translate(-311.137 -146.228)" fill="#040404"/>
    <path id="Path_75" data-name="Path 75" d="M73.179,411.035A6.965,6.965,0,0,1,71.6,410.9c.493-1.191-1.21-1.2-1.533-.132-.585,1.942,3.357,1.8,3.7,1.585.824-.511.124-1.318-.589-1.322" transform="translate(-59.973 -351.203)" fill="#040404"/>
    <path id="Path_76" data-name="Path 76" d="M128.466,221.918c.342.274,1.474,1.458,1.994,1.119.6-.392-1.385-1.771-6.786-6.284-.372-.31-1.291-1.423-1.828-1.192-.816.35.2,1.216,6.62,6.357" transform="translate(-104.168 -184.626)" fill="#040404"/>
    <path id="Path_77" data-name="Path 77" d="M160.322,179.1c5.867,5.059,6.2,5.384,6.589,5.111.459-.32-1.02-1.5-1.338-1.773-6.056-5.213-6.062-5.313-6.477-5.043-.6.393.777,1.317,1.226,1.7" transform="translate(-136.155 -151.886)" fill="#040404"/>
    <path id="Path_78" data-name="Path 78" d="M130.165,199.535c.729.623,1.537,1.571,2.56,1.593-.158-.886-.11-.634-7.286-6.826-1.577-1.361-2.155-2-2.52-1.554-.4.483.124.691,7.245,6.787" transform="translate(-105.21 -164.991)" fill="#040404"/>
    <path id="Path_79" data-name="Path 79" d="M183.733,174.605c3.146,2.7,3.315,2.969,4.135,2.972-.018-.742-.26-.817-3.544-3.628-.276-.236-1.041-1.054-1.469-.7-.446.364.665,1.176.878,1.358" transform="translate(-156.547 -148.332)" fill="#040404"/>
    <path id="Path_80" data-name="Path 80" d="M140.919,185.656c.938.806,2.175,2.333,3.479,2.467-.16-1.2-1.915-2.269-2.757-3.016-11.473-10.186-11.44-10.223-11.84-9.755-.376.441-.187.593,11.118,10.3" transform="translate(-111.107 -150.083)" fill="#040404"/>
    <path id="Path_81" data-name="Path 81" d="M100.5,444.651c-.893-.346-1.932.149-2.886-.237-.514-.208-.393-1.2-1.183-.96a1.111,1.111,0,0,0-.194,1.919,5.3,5.3,0,0,0,4.263.6.712.712,0,0,0,0-1.322" transform="translate(-82.042 -379.839)" fill="#040404"/>
    <path id="Path_82" data-name="Path 82" d="M166.927,448.227c-1.925-.033-13.42.952-18.837-.169.3-1.277-1.269-1.285-1.488-.131-.613,3.228,12.206,2.081,19.472,1.9.593-.015,1.6,0,1.679-.786a.789.789,0,0,0-.826-.815" transform="translate(-125.564 -382.976)" fill="#040404"/>
    <path id="Path_83" data-name="Path 83" d="M366.215,446.653c-.724-.251-1.556.456-3.543.045-.485-.1-.752-.729-1.312-.511-.891.347-.265,1.443.327,1.693a8.314,8.314,0,0,0,4.593.132.733.733,0,0,0-.066-1.358" transform="translate(-309.166 -382.171)" fill="#040404"/>
    <path id="Path_84" data-name="Path 84" d="M62.164,56.878c-.879-.945-2.342-1.99-2.91-3.15-.467-.955.225-17.919.225-25.664,4.636-.1,15.6-5.323,14.458-14.112-1.476-11.39-17.9-16.431-28.9-12.777-5.423,1.8-10.818,5.708-11.09,11.924A13.493,13.493,0,0,0,35,18.087c-5.85-.016-19.13-1.757-22.573,1.463-1.673,1.565-1.057,3.656-1.39,8.513-.282,4.122-.454,17.472-.188,23.564.076,1.767.282,1.307-.856,2.369-1.41,1.312-6.364,6.188-8.6,9.577-.948,1.438-2.26,3.856-.59,5.3,1.053.912,2.784.6,4.069.6,64.984,0,64.28.643,64.971-1.182.59-1.556-.112-3.3-7.677-11.42M36.864,8.7c4.319-7.159,18.4-9.728,28.129-4.163,13.145,7.519,8.1,21.212-8.336,22.338-3.423.235-5.308-.505-6.957.008-5.7,1.771-10.017,6.3-11.683,7.152a35.281,35.281,0,0,1,2.974-7.089c.411-.759,1.624-2.094,1.395-3.019-.133-.536-.808-.811-1.218-1.1-5.831-4.074-6.855-9.9-4.3-14.13M15.295,24.717c-.241-2.522.317-2.606,2.308-2.694,6.732-.295,7.507-.047,15.819.522,7.553.519,4.672.123,7.417,1.844a23.506,23.506,0,0,1-1.621,2.822c-.826,1.527-3.994,7.938-2.574,9,.858.645,1.616-.529,4.719-2.859,1.943-1.46,7.041-4.812,9.255-5.177.846-.14,1.375.278,4.66.278,0,5.359-.066,10.718-.066,16.081,0,1.906.327,5.148,0,5.546-.423.521-18.8-.295-38.007-.295-.59,0-1.87.25-2.226-.331-.921-1.507.4-23.805.311-24.742m-2.187-3.544c1.669-3.051,15.076-1.946,18.475-1.713,4.858.333,4.063-.48,5.645,1.909-.08,0-13.841-1.453-20.019-.864-4.079.387-3.2.86-3.744,13.138C12.662,51.979,12.9,51.3,16.553,51.3c5.059,0,37.2.525,37.216.525,4.393,0,2.888.351,2.888-23.432l1.247-.066-.328,24.417H12.286c0-.134-.237-29.635.822-31.571M68.2,67.764c-.6.357-64.934.206-64.91.206-5.24-.027,2.9-7.663,5.691-10.83a31.539,31.539,0,0,1,2.841-2.848c.187-.069,29.695-.04,44.764-.04,1.478,0,1.028-.136,1.98.919,8.305,9.175,10.663,11.979,9.634,12.593" transform="translate(0 -0.001)" fill="#040404"/>
    <path id="Path_85" data-name="Path 85" d="M482.616,426.77c-.678.217-.036,1.131.165,1.455,2.426,3.9,2.409,5.551,3.307,5.2,1.5-.585-2.645-6.921-3.472-6.656" transform="translate(-413.157 -365.571)" fill="#040404"/>
    <path id="Path_86" data-name="Path 86" d="M510.9,443.12c-.834.329.657,2.461,1.3,2.248.786-.26-.6-2.526-1.3-2.248" transform="translate(-437.433 -379.563)" fill="#040404"/>
    <path id="Path_87" data-name="Path 87" d="M313.641,447.378a3.719,3.719,0,0,0-1.509.116,7.3,7.3,0,0,1-1.969-.159c-.064-1.376-1.747-.773-1.475.394.4,1.72,4.62,1.324,5.143.939a.728.728,0,0,0-.19-1.289" transform="translate(-264.402 -382.515)" fill="#040404"/>
    <path id="Path_88" data-name="Path 88" d="M119.486,414.133a5.294,5.294,0,0,0-2.886-.3.653.653,0,0,0-.065,1.192,5.247,5.247,0,0,0,2.949.343.692.692,0,0,0,0-1.237" transform="translate(-99.521 -354.414)" fill="#040404"/>
    <path id="Path_89" data-name="Path 89" d="M418.156,446.9c-.726-.279-1.785.486-3.741-.035-.522-.138-.684-.853-1.312-.654-.885.281-.5,1.46.13,1.763a8.934,8.934,0,0,0,4.987.3.744.744,0,0,0-.064-1.373" transform="translate(-353.426 -382.2)" fill="#040404"/>
  </g>
</svg>
