<svg id="Group_26" data-name="Group 26" xmlns="http://www.w3.org/2000/svg" xmlns:xlink="http://www.w3.org/1999/xlink" width="110.206" height="116" viewBox="0 0 110.206 116">
  <defs>
    <clipPath id="clip-path">
      <rect id="Rectangle_10" data-name="Rectangle 10" width="110.206" height="116" fill="none"/>
    </clipPath>
  </defs>
  <g id="Group_6" data-name="Group 6" clip-path="url(#clip-path)">
    <path id="Path_9" data-name="Path 9" d="M201,195.375l7.459-2.751a2.969,2.969,0,0,0,.342-5.42l-28.446-14.781a2.969,2.969,0,0,0-4.262,3.3l7.178,31.243a2.969,2.969,0,0,0,5.332,1.028l4.534-6.532,8.784,11.348a2.969,2.969,0,0,0,4.165.531l3.167-2.451a2.969,2.969,0,0,0,.53-4.166Z" transform="translate(-100.2 -97.961)" fill="#14a0de"/>
    <path id="Path_10" data-name="Path 10" d="M106.676,9.59A9.572,9.572,0,0,0,97.085,0H9.59A9.572,9.572,0,0,0,0,9.59V21.116H106.676ZM12,14.525A4.014,4.014,0,1,1,16.025,10.5,4.013,4.013,0,0,1,12,14.525m12.339,0A4.014,4.014,0,1,1,28.363,10.5a4.012,4.012,0,0,1-4.029,4.029m12.339,0a4.014,4.014,0,1,1,0-8.028,4.014,4.014,0,0,1,0,8.028m56.633-.906H73.283a3.124,3.124,0,1,1,0-6.248H93.306a3.124,3.124,0,0,1,0,6.248" fill="#14a0de"/>
    <path id="Path_11" data-name="Path 11" d="M71.564,107.543a9.217,9.217,0,0,1,11.464-2.468l23.647,12.276V63.53H0v58.1a9.572,9.572,0,0,0,9.59,9.59H73.47l-3.655-15.9a9.041,9.041,0,0,1,1.75-7.778M59.069,75.275H92.025a3.124,3.124,0,1,1,0,6.248H59.069a3.124,3.124,0,0,1,0-6.248M32.643,73.651A10.558,10.558,0,1,1,22.084,84.209,10.572,10.572,0,0,1,32.643,73.651m19.148,43.607a2.579,2.579,0,0,1-2.561,2.593H16.087a2.607,2.607,0,0,1-2.593-2.593v-3.624a20.516,20.516,0,0,1,1.156-6.716,16.626,16.626,0,0,1,9.059-9.653,15.721,15.721,0,0,0,17.9-.031,16.873,16.873,0,0,1,9.059,9.684v.031a20.107,20.107,0,0,1,1.124,6.653Zm4.155-24.271a3.133,3.133,0,0,1,3.124-3.124H92.025a3.124,3.124,0,1,1,0,6.247H59.069a3.133,3.133,0,0,1-3.124-3.124" transform="translate(0 -36.166)" fill="#203a72"/>
  </g>
</svg>
