<svg xmlns="http://www.w3.org/2000/svg" xmlns:xlink="http://www.w3.org/1999/xlink" width="98.161" height="98.687" viewBox="0 0 98.161 98.687">
  <defs>
    <clipPath id="clip-path">
      <rect id="Rectangle_76" data-name="Rectangle 76" width="80.832" height="81.555" fill="none"/>
    </clipPath>
  </defs>
  <g id="Group_147" data-name="Group 147" transform="translate(0 19.555) rotate(-14)">
    <g id="Group_146" data-name="Group 146" clip-path="url(#clip-path)">
      <path id="Path_43" data-name="Path 43" d="M482,175.156c-.568.16-.4.975-.355,1.4.307,3.215-.924,6.126.427,5.832,1.281-.278,1.572-7.7-.071-7.236" transform="translate(-404.298 -147.077)" fill="#040404"/>
      <path id="Path_44" data-name="Path 44" d="M496.652,177.123c-.514.224-.288,2.842-.184,3.393.193,1.02,1.113.9,1.128-.22.011-.9.35-3.732-.944-3.172" transform="translate(-416.811 -148.685)" fill="#040404"/>
      <path id="Path_45" data-name="Path 45" d="M356.59,6.561c-.586.3-.554,1.493-.637,2.05-.4,2.725-1.513,9.095-.182,8.608.566-.207.584-1.576.655-2.081.988-7.027,1.084-9.046.164-8.577" transform="translate(-298.24 -5.456)" fill="#040404"/>
      <path id="Path_46" data-name="Path 46" d="M373.131,15.767c-.558.2-1.105,3.028-.085,2.729.6-.176,1.1-3.095.085-2.729" transform="translate(-312.801 -13.214)" fill="#040404"/>
      <path id="Path_47" data-name="Path 47" d="M77.738,39.039c1.16.768,2.592-1.168,2.932-1.222s.98.877,1.98,1.09c2.034.435,1.5-2.158.954-3.189a6.4,6.4,0,0,0,1.1-.5c2.305-1.176,1.236-2.531-1.027-3.05-.3-.069-.754-.06-.976-.3-.686-.741-.664-1.961-1.521-2.653-1.66-1.34-2.5,2-2.637,3.051-1.053,0-3.565.43-2.556,2.053.312.5,1.5.937,1.594,1.474.178,1.045-1.135,2.385.157,3.24m.292-5.154c.36-.106.755-.015,1.1-.179,1.11-.528.767-1.7,1.394-2.535.3.72.512,1.785,1.247,2.19a14.186,14.186,0,0,0,1.834.451c-.637.528-1.986.81-1.809,1.907a4.052,4.052,0,0,0,.342.88c-.66-.38-1.321-1.142-2.127-.608-.412.272-.673.73-1.1.975.176-.621.711-1.5.312-2.126-.345-.542-1.193-.773-1.193-.954" transform="translate(-63.617 -24.277)" fill="#040404"/>
      <path id="Path_48" data-name="Path 48" d="M2.7,466.056c-.1-.333-.4-1.456-.957-1.167-.45.235-.193,1.1-.09,1.461.754,2.641,1.258,5.979,2.336,5.47.418-.2.42-.094-1.289-5.764" transform="translate(-1.252 -390.371)" fill="#040404"/>
      <path id="Path_49" data-name="Path 49" d="M4.424,372.84c-3.707-9.267-2.83-15.061-3.22-18.555-.106-.947-1.124-1.112-1.165.587-.147,6-.034,11.233,2.976,18.627.526,1.29,2.207,5.4,3.386,4.68.645-.393-.057-.537-1.978-5.34" transform="translate(0 -296.934)" fill="#040404"/>
      <path id="Path_50" data-name="Path 50" d="M120.752,204.82c-.765-.217-1.618.476-2.42.427-1.412-.088-2.431-1.243-3.96-1.024a22.012,22.012,0,0,1-3.006.7c-1.18,0-2.222-.578-3.447-.418-1.46.19-2.521,1.057-4.034.59-2.71-.836-3.752.524-5.207.4a8.529,8.529,0,0,1-2.126-.835c-2.934-1.1-6.867,1.618-5.278,2.62.58.365,1.1-.283,1.537-.581,2.506-1.72,3.757.31,5.5.485,1.379.138,2.551-.62,3.887-.646.949-.019,1.827.506,2.787.506,1.2,0,2.208-.745,3.374-.862,1.034-.1,1.977.5,3.007.5a23.314,23.314,0,0,0,3.08-.715c1.063-.141,1.827.5,2.787.812,1.163.38,3.567.036,4-.758a.827.827,0,0,0-.48-1.2" transform="translate(-76.344 -171.481)" fill="#040404"/>
      <path id="Path_51" data-name="Path 51" d="M112.687,257.923c-1.2-.09-2.289-.782-3.52-.605a22.255,22.255,0,0,1-3.52.628c-1.143-.014-2.212-.488-3.374-.345s-2.347.851-3.52.779c-1.03-.064-3.338-1.865-5.5-.426-.508.338-1.611,1.443-.656,1.959.6.322,1.025-.278,1.463-.566,1.476-.968,2.94.622,4.327.719,1.507.106,2.791-.617,4.254-.779,1.089-.121,2.2.439,3.3.417,1.251-.025,2.373-.6,3.594-.694,1.314-.1,2.5.827,3.887.577,1.8-.323,1.442-1.527.806-1.788-.511-.208-1.022.161-1.539.123" transform="translate(-77.445 -216.069)" fill="#040404"/>
      <path id="Path_52" data-name="Path 52" d="M225.069,38.67c-.389.934-1.583,3.278.294,3.506,1.314.16,2.453-1.246,2.86-1.263.44-.02,1.936,1.756,3.146.912,1.12-.779,0-2.495.213-2.832.15-.232,2.756-1.079,2.14-2.6-.516-1.272-2.576-.828-2.87-1.2-.227-.285-.375-3.944-2.263-3.531-1.6.351-1.426,2.382-2.262,3.384-.362.434-1.724.137-2.286.381-1.981.861-.174,2.736,1.027,3.236m.073-1.907c.575,0,1.461.232,1.979-.034.928-.476.961-2.257,1.615-3.046.2.878.188,2.588,1.1,3.057.536.275,1.19.108,1.759.243,0,.268-2.11.443-2.131,1.54-.011.558.44,1.09.591,1.613-.563-.3-1.4-1.269-2.054-1.194-.691.079-1.251.931-1.833,1.267.123-.688.839-1.25.9-1.906.092-1.029-1.926-1.236-1.926-1.54" transform="translate(-187.408 -26.568)" fill="#040404"/>
      <path id="Path_53" data-name="Path 53" d="M3.054,321.824c-.627.356-.834,3.182.2,2.624.575-.311.915-3.256-.2-2.624" transform="translate(-2.126 -270.191)" fill="#040404"/>
      <path id="Path_54" data-name="Path 54" d="M102.82,410.756c-.938.175-1.87.039-2.787.224-.67.135-1.513.607-2.2.452-.877-.2-.241-.818.008-1.291,1.892-3.6-2.014-4.742-2.554-.587a4.554,4.554,0,0,1-.065,1.024c-.315.817-1.672,1.249-2.449,1.25.089-.7-.111-2.038-1.173-1.4a5.856,5.856,0,0,0-1.113,1.183c-.519.567-2.535,2.157-3.1,1.694-.544-.45.942-3.022,2.523-3.733.372-.168.824-.062,1.17-.247a.761.761,0,0,0,.315-.939c-.72-1.834-5.675,1.068-5.858,4.692-.159,3.131,4.4,2.088,5.986-.073,1.887,1.55,4.006-.479,4.4-.523.44-.049.6.675,2.053.709,1.222.028,2.352-.553,3.594-.553.8,0,3.085-.058,2.989-1.247-.076-.936-1.115-.749-1.743-.631" transform="translate(-71.832 -341.715)" fill="#040404"/>
      <path id="Path_55" data-name="Path 55" d="M114.466,313.346c2.536-.288,2.009-1.8,1.174-1.958a15.4,15.4,0,0,0-2.347.268c-1.175-.006-2.339-.493-3.52-.335a30.267,30.267,0,0,1-4.473.7c-1.312-.026-2.58-.494-3.887-.509-1.772-.021-3.267.929-4.987,1.088-1.581.145-3.076-1.051-4.694-1.013-2.007.047-2.565,1.719-1.466,2.009.579.153,1.083-.431,1.687-.39a17.549,17.549,0,0,1,3.154.955c1.983.523,3.6-.64,5.5-.877,1.438-.179,2.817.412,4.254.429,1.7.02,3.245-.538,4.913-.653,1.586-.11,3.1.472,4.693.29" transform="translate(-75.339 -261.418)" fill="#040404"/>
      <path id="Path_56" data-name="Path 56" d="M91.99,22.45c-2.545-2.347-4.629,2.258-5.647,2.47-.523.108-.98-.419-1.539-.186-1.1.456-13.276,16.413-13.934,17,0-2.983-.219-5.958-.146-8.947.24-9.79,1.487-26.489,1.78-28.968.085-.718.543-2.255-.041-2.839S70.492.863,69.769.88c-2.618.064-5.227.368-7.847.368-15.882,0-27.54-2.73-39.309-.116-4.8,1.068-1.335-.141-2.2,19.624-1.038,23.733-3.594,41.384,3.582,59.257.676,1.688.855,1.674,2.655,1.413,20.369-2.931,47.554-.4,48.938-2.162.625-.8-.239-1.479-1.571-6.8-1.738-6.946-2.344-16.567-2.11-18.7C72,52.876,87.16,34.073,89.5,31.39c-.407,5.124-5.569,8.295-8.416,12.027-.712.933-1.9,3.791.129,4.091,1.093.161,1.767-1.269.587-1.671.645-2.72,6.157-5.875,8.338-10.634,2.111-4.61.234-6.531.222-7.187-.017-.955,4.138-3.257,1.634-5.567M73.153,75.759a19.452,19.452,0,0,1,.723,2.42c-11.853,0-23.737-.148-35.568.37-12.959.568-12.152,2.252-12.966.217C16.5,56.653,23.93,27.854,22.014,7.7c-.433-4.552-.562-4.374-.382-4.558a13.038,13.038,0,0,1,3.255-.764c11.241-1.584,20.2-.03,33.515.553,4.252.186,8.455-.35,12.687-.437a236.594,236.594,0,0,0-1.832,40.482c.037,1.442.406.376-2.943,4.767-14.9,19.532-7.381,7.893-13.687,21.121-1.147,2.4.314,3.13,1.668,2.576a16.848,16.848,0,0,0,3.814-2.488c1.325-1.036,3.026-1.671,4.254-2.809.837-.776,7-9.113,7.847-10.481.422,0-.8,7.035,2.944,20.094M55.908,68.426c0,.114.034.051-1.834,1.247a4.294,4.294,0,0,1,.953-1.98ZM87.768,30.95C73.974,47,66.518,58.283,65.246,59.614c-.572.6-1.692-.65-2.243.1-.484.66.865,1.026,1.265,1.157-.773,1.622-2.261-.414-3.371.036-.8.324.095,1.45,2.124,1.724-.991,1.59-2.875-.633-3.593-.446-1.211.318.567,2.049,2.127,2.278-.423,1.092-1.973,1.65-2.934,2.178-.333.183-1.608,1.2-2.433-.052-.54-.819.883-4.08,1.374-4.839.593-.919,27.317-35.046,27.621-35.2.333-.165,3.2,1.208,3.878,2.488.274.517-.974,1.536-1.292,1.907m3.256-6.821c-.062.714-1.909,2.451-1.974,2.469-.34.1-.967-.525-1.24-.709a11.742,11.742,0,0,1,1.907-1.974c.345-.32,1.385-.694,1.307.213" transform="translate(-16.047 0)" fill="#040404"/>
      <path id="Path_57" data-name="Path 57" d="M150.132,35.324c-.259.947-1,2.14-.586,3.154.728,1.8,3.2-.18,3.667-1.173.907.4,3.077,2.76,3.827.807.415-1.078-.445-1.807-.3-2.63.053-.294.571-.421.8-.546,1.541-.852,1.645-2.589-.954-2.825-.219-.019-.584.091-.764-.063-.3-.261-.307-2.222-1.1-3.089-1.432-1.555-3.161,1.462-3.413,3.14-4.11,0-3.182,2.647-1.173,3.227m1.907-1.84c.991-.567,1.225-2.707,1.687-2.707.387,2.87.742,2.934,2.347,2.934v.073c-2.1.6-.968,1.844-.807,2.933-.7-.27-1.25-1.262-1.98-1.357-.809-.1-1.481,1.173-2.053,1.577.431-1.323,1.073-2.46-.587-3.154,0-.213.874,0,1.394-.3" transform="translate(-124.644 -23.955)" fill="#040404"/>
      <path id="Path_58" data-name="Path 58" d="M188.3,102.387c-1.969,1.086,1.319,3.259,1.319,3.343a4.316,4.316,0,0,0-1.3,2.566,1.424,1.424,0,0,0,1.671,1.445c1.68-.24,2.3-1.6,2.756-1.535.138.019,1.554,1.52,2.671,1.548,2.112.052.82-2.738.733-3.731,2.337-.4,3.815-3.237.073-3.45-1.132-.061-.881-.236-1.1-1.317-1.049-5.148-3.648-2.443-4.107.954-.872,0-1.9-.271-2.713.177m3.153,1.389c1.269-.366,1.083-2.138,1.761-3.033.335.887.136,2.728,1.1,3.2.554.273,1.317.069,1.906.243-.444.279-1.036.264-1.463.565-.985.7-.131,2.088.07,2.956-.822-.273-1.263-1.379-2.127-1.5s-1.811,1.364-2.567,1.724c.278-.964,1.809-2.1,1.052-3.15-.314-.436-.871-.6-1.2-1.03a5.546,5.546,0,0,0,1.467.026" transform="translate(-157.605 -82.627)" fill="#040404"/>
      <path id="Path_59" data-name="Path 59" d="M107.45,102.572c-1.01-.128-2.319-.4-3.224.228-1.746,1.208.76,2.991,1.831,3.439-.505,1.016-2.312,3.531,0,3.865,1.456.208,2.878-1.5,3.227-1.545s1.13,1.023,2.053,1.339c2.282.782,1.68-2.242,1.247-3.366,3.292-.949,3.585-4.2-.66-3.667-.09-1.124-.586-3.05-1.76-3.509-1.635-.64-2.615,2.009-2.713,3.216m2.274-1.394c.28.83.4,2.787,1.247,3.2a5.684,5.684,0,0,0,2.053.023c0,.355-2.4.5-2.26,1.98a11.8,11.8,0,0,0,.5,1.54c-.694-.293-1.281-1.324-2.054-1.38-.877-.065-1.651,1.308-2.42,1.673.23-.783,1.086-1.329,1.238-2.114.227-1.168-2.339-1.811-2.339-2.067.664,0,1.914.355,2.493.061.972-.494,1.09-2.921,1.541-2.921" transform="translate(-87.023 -83.355)" fill="#040404"/>
    </g>
  </g>
</svg>
