<svg id="Group_70" data-name="Group 70" xmlns="http://www.w3.org/2000/svg" xmlns:xlink="http://www.w3.org/1999/xlink" width="28.721" height="28.168" viewBox="0 0 28.721 28.168">
  <defs>
    <clipPath id="clip-path">
      <rect id="Rectangle_17" data-name="Rectangle 17" width="28.721" height="28.168" fill="#fffcfc"/>
    </clipPath>
  </defs>
  <g id="Group_3" data-name="Group 3" clip-path="url(#clip-path)">
    <path id="Path_6" data-name="Path 6" d="M14.361,28.168A14.41,14.41,0,0,1,4.206,24.043a13.893,13.893,0,0,1,0-19.918,14.561,14.561,0,0,1,20.309,0,13.893,13.893,0,0,1,0,19.918,14.41,14.41,0,0,1-10.154,4.125m0-26.35A12.4,12.4,0,0,0,1.853,14.084,12.4,12.4,0,0,0,14.361,26.35,12.4,12.4,0,0,0,26.868,14.084,12.4,12.4,0,0,0,14.361,1.817" transform="translate(0)" fill="#fffcfc"/>
    <path id="Path_7" data-name="Path 7" d="M73.223,74.4a.747.747,0,0,1-.385.263.759.759,0,0,1-.466-.048,10.07,10.07,0,0,1-3-1.925,9.864,9.864,0,0,1-1.961-2.94.719.719,0,0,1-.049-.457.732.732,0,0,1,.268-.377c1.556-1.275,2.014-1.408,1.686-2.068-1.471-2.957-1.481-3.25-1.82-3.382a2.541,2.541,0,0,0-2.059.375A4.223,4.223,0,0,0,63.716,67.3a12.448,12.448,0,0,0,3.6,7.375c2.611,2.588,5.549,3.83,7.556,3.568.256-.033,2.654-.265,3.523-1.69a2.434,2.434,0,0,0,.383-2.019c-.134-.331-.355-.509-3.448-1.785-.157-.065-.471-.291-2.109,1.653" transform="translate(-56.996 -56.681)" fill="#fffcfc" fill-rule="evenodd"/>
  </g>
</svg>
